<?xml version="1.0" encoding="UTF-8"?>
<!DOCTYPE svg PUBLIC "-//W3C//DTD SVG 1.1//EN" "http://www.w3.org/Graphics/SVG/1.1/DTD/svg11.dtd">
<!-- Creator: CorelDRAW X7 -->
<svg xmlns="http://www.w3.org/2000/svg" xml:space="preserve" width="12.2528in" height="12.2528in" version="1.1" style="shape-rendering:geometricPrecision; text-rendering:geometricPrecision; image-rendering:optimizeQuality; fill-rule:evenodd; clip-rule:evenodd"
viewBox="0 0 264624 264624"
 xmlns:xlink="http://www.w3.org/1999/xlink">
 <defs>
  <style type="text/css">
    .fil0 {fill:#00CCFF}
    .fil1 {fill:white}
  </style>
 </defs>
 <g id="Layer_x0020_1">
  <metadata id="CorelCorpID_0Corel-Layer"/>
  <g id="_2969787069024">
   <circle class="fil0" cx="132312" cy="132312" r="132312"/>
   <path class="fil1" d="M84380 84380c3092,-3092 6482,-5887 10122,-8337l0 32367 0 19041 0 9723 0 1073 0 36638 0 13697c-3837,-2583 -7396,-5549 -10621,-8842 -8398,-8575 -14537,-19370 -17455,-31424l-3397 0 -8834 0 -21348 0c2852,17868 10404,34169 21348,47595 7178,8806 15816,16376 25544,22340 4682,2870 9617,5369 14763,7454 2002,811 4036,1560 6100,2244 8503,2818 17510,4534 26849,4978l0 -4978 0 -28022 0 -8936 0 -31167 0 -22650 0 -9468 0 -255 0 -26385 0 -28509 0 -7859 0 -17092 0 -15908c-11606,551 -22697,3067 -32949,7221 -6154,2494 -12006,5579 -17485,9184 -1258,828 -2497,1684 -3716,2566 -4346,3146 -8430,6632 -12215,10417l23294 23294zm52794 -36870l0 17188 0 6881 0 27320 0 25696 0 2856 0 9723 0 18206 0 30056 0 14491 0 24066 0 3956 0 4978c9339,-444 18345,-2160 26849,-4978 2063,-684 4097,-1433 6100,-2244 30163,-12224 53060,-38636 60411,-70958 482,-2119 898,-4264 1244,-6431l-29633 0 -3947 0c-216,892 -449,1777 -700,2655 -4440,15540 -14287,28799 -27375,37611l0 -21970 0 -26293 0 -3145 0 -9723 0 -13397 0 -22499 0 -15512c5180,3487 9852,7672 13883,12418 4468,5262 8148,11216 10855,17678 1369,3268 2489,6666 3337,10170l24453 0 9127 0c-207,-1294 -438,-2579 -693,-3855 -1129,-5645 -2729,-11120 -4759,-16381 -2068,-5361 -4581,-10501 -7494,-15374 -3453,-5775 -7467,-11176 -11968,-16126 -6135,-6748 -13173,-12660 -20924,-17544 -4994,-3147 -10283,-5867 -15817,-8110 -10252,-4154 -21344,-6670 -32949,-7221l0 15812z"/>
  </g>
 </g>
</svg>
