<?xml version="1.0" encoding="UTF-8"?>
<!DOCTYPE svg PUBLIC "-//W3C//DTD SVG 1.1//EN" "http://www.w3.org/Graphics/SVG/1.1/DTD/svg11.dtd">
<!-- Creator: CorelDRAW X7 -->
<svg xmlns="http://www.w3.org/2000/svg" xml:space="preserve" width="12.2528in" height="12.2528in" version="1.1" style="shape-rendering:geometricPrecision; text-rendering:geometricPrecision; image-rendering:optimizeQuality; fill-rule:evenodd; clip-rule:evenodd"
viewBox="0 0 409920 409920"
 xmlns:xlink="http://www.w3.org/1999/xlink">
 <defs>
  <style type="text/css">
    .fil0 {fill:#D1E35B}
    .fil1 {fill:white}
    .fil2 {fill:#CC3300;fill-rule:nonzero}
  </style>
 </defs>
 <g id="Layer_x0020_1">
  <metadata id="CorelCorpID_0Corel-Layer"/>
  <g id="_2969787084032">
   <g>
    <circle class="fil0" cx="204960" cy="204960" r="204960"/>
    <path class="fil1" d="M130710 130710c4790,-4789 10040,-9119 15679,-12915l0 50138 0 29496 0 15062 0 1662 0 56755 0 21217c-5944,-4002 -11456,-8596 -16452,-13697 -13009,-13283 -22519,-30006 -27039,-48678l-5262 0 -13684 0 -33070 0c4419,27680 16117,52931 33070,73728 11119,13642 24499,25367 39569,34606 7253,4446 14897,8316 22868,11547 3102,1257 6253,2417 9449,3476 13173,4366 27124,7023 41591,7711l0 -7711 0 -43408 0 -13841 0 -48280 0 -35087 0 -14667 0 -395 0 -40872 0 -44162 0 -12174 0 -26477 0 -24642c-17978,854 -35159,4751 -51040,11187 -9533,3863 -18597,8641 -27085,14225 -1949,1283 -3868,2609 -5756,3975 -6732,4874 -13059,10273 -18923,16136l36085 36085zm81781 -57114l0 26625 0 10660 0 42319 0 39805 0 4424 0 15062 0 28202 0 46559 0 22447 0 37281 0 6127 0 7711c14466,-688 28417,-3345 41590,-7711 3197,-1059 6348,-2219 9449,-3476 46725,-18935 82194,-59849 93582,-109919 747,-3282 1390,-6604 1926,-9962l-45903 0 -6114 0c-334,1382 -696,2753 -1085,4113 -6877,24073 -22130,44611 -42406,58262l0 -34033 0 -40729 0 -4872 0 -15062 0 -20753 0 -34851 0 -24030c8025,5402 15263,11884 21506,19236 6922,8152 12622,17375 16815,27385 2121,5062 3856,10325 5170,15753l37880 0 14137 0c-320,-2003 -678,-3994 -1073,-5971 -1749,-8745 -4228,-17225 -7372,-25375 -3203,-8305 -7096,-16267 -11609,-23815 -5348,-8946 -11567,-17312 -18538,-24980 -9504,-10453 -20407,-19611 -32414,-27177 -7736,-4875 -15929,-9088 -24502,-12562 -15880,-6436 -33062,-10333 -51039,-11187l0 24494z"/>
   </g>
   <g>
    <path class="fil0" d="M209382 91576l0 38767c0,9205 -7092,16331 -16305,16331l-8699 0c-9213,0 -16304,-7126 -16304,-16331l0 -109364c0,-9209 7095,-16305 16304,-16305l39793 0c20639,0 32737,13189 32737,33543l0 19655c0,18851 -14024,33704 -32898,33704l-14628 0zm20 -54776c-15,236 -20,458 -20,611l0 21266c0,189 8,477 33,773 569,0 1137,0 1706,0 3639,0 4479,-1200 4479,-4800l0 -13211c0,-3613 -849,-4639 -4479,-4639l-1719 0z"/>
    <path class="fil2" d="M201455 89771c0,-4833 1933,-6122 6766,-6122l15789 0c12888,0 24971,-9667 24971,-25777l0 -19655c0,-16111 -8700,-25616 -24810,-25616l-39793 0c-4833,0 -8378,3544 -8378,8378l0 109363c0,4834 3545,8405 8378,8405l8699 0c4834,0 8378,-3571 8378,-8405l0 -40571zm6766 -22394c-4833,0 -6766,-3867 -6766,-8700l0 -21266c0,-4833 1933,-8538 6766,-8538l2900 0c8055,0 12405,4511 12405,12566l0 13211c0,8055 -4350,12727 -12405,12727 -322,0 -2578,0 -2900,0z"/>
   </g>
  </g>
 </g>
</svg>
