<?xml version="1.0" encoding="UTF-8"?>
<!DOCTYPE svg PUBLIC "-//W3C//DTD SVG 1.1//EN" "http://www.w3.org/Graphics/SVG/1.1/DTD/svg11.dtd">
<!-- Creator: CorelDRAW X7 -->
<svg xmlns="http://www.w3.org/2000/svg" xml:space="preserve" width="12.2528in" height="12.2528in" version="1.1" style="shape-rendering:geometricPrecision; text-rendering:geometricPrecision; image-rendering:optimizeQuality; fill-rule:evenodd; clip-rule:evenodd"
viewBox="0 0 1727093 1727093"
 xmlns:xlink="http://www.w3.org/1999/xlink">
 <defs>
  <style type="text/css">
    .fil0 {fill:#D1E35B}
    .fil1 {fill:white}
    .fil2 {fill:#CC3300;fill-rule:nonzero}
  </style>
 </defs>
 <g id="Layer_x0020_1">
  <metadata id="CorelCorpID_0Corel-Layer"/>
  <g id="_2969787083936">
   <g>
    <circle class="fil0" cx="863546" cy="863546" r="863546"/>
    <path class="fil1" d="M550716 550716c20180,-20181 42300,-38423 66058,-54418l0 211247 0 124272 0 63458 0 7005 0 239122 0 89394c-25043,-16862 -48268,-36216 -69318,-57709 -54811,-55963 -94879,-126422 -113920,-205091l-22171 0 -57656 0 -139332 0c18618,116620 67905,223008 139332,310633 46849,57475 103223,106877 166715,145802 30558,18733 62764,35040 96350,48651 13067,5295 26343,10182 39812,14646 55500,18393 114279,29590 175231,32487l0 -32487 0 -182890 0 -58317 0 -203415 0 -147831 0 -61793 0 -1665 0 -172202 0 -186067 0 -51293 0 -111553 0 -103823c-75745,3599 -148133,20017 -215043,47132 -40165,16277 -78356,36409 -114115,59936 -8214,5405 -16300,10989 -24252,16747 -28364,20537 -55024,43283 -79727,67986l152036 152036zm344559 -240639l0 112178 0 44914 0 178303 0 167707 0 18638 0 63458 0 118825 0 196165 0 94573 0 157073 0 25817 0 32487c60953,-2897 119732,-14094 175231,-32487 13470,-4464 26746,-9351 39812,-14646 196863,-79779 346301,-252160 394283,-463114 3146,-13830 5856,-27826 8114,-41972l-193399 0 -25759 0c-1409,5821 -2934,11598 -4571,17328 -28977,101424 -93242,187956 -178668,245472l0 -143392 0 -171599 0 -20530 0 -63458 0 -87436 0 -146838 0 -101245c33810,22763 64305,50071 90610,81049 29165,34347 53179,73205 70847,115380 8934,21327 16246,43501 21782,66370l159595 0 59563 0c-1348,-8441 -2856,-16829 -4522,-25159 -7366,-36842 -17811,-72573 -31057,-106912 -13497,-34989 -29900,-68534 -48913,-100338 -22533,-37691 -48733,-72938 -78106,-105247 -40041,-44041 -85979,-82624 -136567,-114502 -32592,-20537 -67114,-38291 -103232,-52928 -66909,-27115 -139297,-43533 -215043,-47132l0 103198z"/>
   </g>
   <g>
    <path class="fil0" d="M877588 490176l31942 0c253,0 568,-3 913,-12 9,-345 12,-659 12,-913l0 -6788c0,-10624 1693,-27996 -610,-38025 -1805,-7858 -8085,-13675 -14130,-18539l-141186 -113583c-52345,-42111 -44993,-92256 -44993,-152951l0 -10182c0,-88303 64291,-121934 144334,-121934l80774 0c81485,0 144334,41772 144334,128722l0 25906c0,36110 -24071,65596 -61523,65596l-44120 0c-38791,0 -61522,-37074 -61522,-72496 0,-3908 -380,-14679 -2243,-19932l-31943 0c-253,0 -568,4 -913,13 -9,345 -12,659 -12,913l0 6787c0,11491 -1248,28003 1477,39036 2232,9031 8152,15194 15258,20891l142543 114260c52263,41892 41641,89120 41641,148912l0 10182c0,88301 -64291,121933 -144334,121933l-80774 0c-81485,0 -144334,-41772 -144334,-128721l0 -25907c0,-36611 28102,-65595 64916,-65595l44121 0c39749,0 58129,37474 58129,72496 0,3907 380,14678 2243,19931z"/>
    <path class="fil2" d="M739157 159365c0,67991 -4752,98649 33938,129873l141187 113582c31902,25227 25793,45591 25793,79643l0 6788c0,20363 -10182,30545 -30545,30545l-33260 0c-20363,0 -30545,-15612 -30545,-49551 0,-20477 -8145,-42876 -28509,-42876l-44121 0c-20363,0 -35296,15612 -35296,35975l0 25907c0,67878 46836,99101 114714,99101l80774 0c67878,0 114713,-24435 114713,-92314l0 -10181c0,-67991 8146,-95255 -30544,-125800l-142544 -114261c-31902,-25228 -27829,-48985 -27829,-83038l0 -6787c0,-20364 10181,-30545 30544,-30545l33261 0c20363,0 30545,15611 30545,49551 0,20476 11539,42876 31902,42876l44121 0c20363,0 31902,-15612 31902,-35976l0 -25906c0,-67878 -46836,-99102 -114713,-99102l-80775 0c-67878,0 -114713,24436 -114713,92314l0 10182z"/>
   </g>
  </g>
 </g>
</svg>
