<?xml version="1.0" encoding="UTF-8"?>
<!DOCTYPE svg PUBLIC "-//W3C//DTD SVG 1.1//EN" "http://www.w3.org/Graphics/SVG/1.1/DTD/svg11.dtd">
<!-- Creator: CorelDRAW X7 -->
<svg xmlns="http://www.w3.org/2000/svg" xml:space="preserve" width="12.2528in" height="12.2528in" version="1.1" style="shape-rendering:geometricPrecision; text-rendering:geometricPrecision; image-rendering:optimizeQuality; fill-rule:evenodd; clip-rule:evenodd"
viewBox="0 0 799532 799532"
 xmlns:xlink="http://www.w3.org/1999/xlink">
 <defs>
  <style type="text/css">
    .fil0 {fill:#D1E35B}
    .fil1 {fill:white}
    .fil2 {fill:#CC3300;fill-rule:nonzero}
  </style>
 </defs>
 <g id="Layer_x0020_1">
  <metadata id="CorelCorpID_0Corel-Layer"/>
  <g id="_2969787078080">
   <g>
    <circle class="fil0" cx="399766" cy="399766" r="399766"/>
    <path class="fil1" d="M254946 254946c9342,-9343 19582,-17787 30581,-25192l0 97793 0 57531 0 29377 0 3242 0 110698 0 41384c-11594,-7806 -22345,-16766 -32090,-26716 -25374,-25907 -43923,-58525 -52738,-94944l-10263 0 -26692 0 -64501 0c8619,53988 31435,103239 64501,143804 21689,26607 47786,49477 77179,67497 14146,8672 29055,16221 44604,22522 6049,2451 12195,4714 18430,6780 25693,8515 52903,13698 81121,15039l0 -15039 0 -84666 0 -26997 0 -94168 0 -68436 0 -28607 0 -770 0 -79719 0 -86137 0 -23745 0 -51642 0 -48064c-35065,1667 -68577,9267 -99551,21820 -18594,7535 -36274,16855 -52828,27746 -3803,2502 -7546,5088 -11227,7753 -13131,9507 -25473,20037 -36909,31473l70383 70383zm159509 -111401l0 51932 0 20792 0 82543 0 77638 0 8628 0 29377 0 55008 0 90811 0 43782 0 72714 0 11952 0 15039c28217,-1341 55428,-6524 81120,-15039 6236,-2066 12382,-4329 18431,-6780 91134,-36933 160315,-116734 182527,-214392 1456,-6403 2711,-12882 3756,-19431l-89531 0 -11925 0c-652,2696 -1358,5370 -2116,8022 -13414,46953 -43165,87012 -82711,113638l0 -66381 0 -79439 0 -9504 0 -29377 0 -40478 0 -67976 0 -46870c15651,10538 29769,23180 41946,37521 13501,15900 24618,33889 32798,53413 4136,9873 7521,20138 10083,30725l73883 0 27573 0c-624,-3908 -1322,-7791 -2093,-11647 -3410,-17056 -8246,-33597 -14378,-49493 -6248,-16198 -13841,-31727 -22643,-46451 -10431,-17448 -22560,-33765 -36158,-48722 -18536,-20388 -39803,-38250 -63222,-53007 -15088,-9507 -31069,-17726 -47789,-24502 -30975,-12553 -64486,-20153 -99551,-21820l0 47774z"/>
   </g>
   <g>
    <path class="fil0" d="M412464 58631l8925 -24638 26 -70c5136,-13698 16030,-20225 30557,-20225l22625 0c8458,0 16268,3693 20234,11424 2840,5534 3109,12371 744,18122l-43800 106475 44049 107914c383,876 699,1781 944,2705 1794,6749 -338,13881 -5238,18788 -4912,4919 -11680,6955 -18505,6955l-19482 0c-13425,0 -26838,-5789 -31584,-19197l-9423 -26624 -9424 26624c-4745,13407 -18158,19197 -31583,19197l-19482 0c-6825,0 -13592,-2036 -18503,-6953 -4901,-4906 -7033,-12037 -5242,-18786 246,-926 563,-1832 946,-2709l44048 -107914 -43855 -106296 -57 -148c-2451,-6374 -1360,-13787 2405,-19419 4575,-6844 12168,-10158 20258,-10158l19482 0c14061,0 27020,6604 32128,20225l38 101 8769 24607z"/>
    <path class="fil2" d="M352046 26869c-9426,0 -11940,7593 -10369,11678l43992 106629c943,2514 1571,5342 629,7542l-44935 110085c-1886,4085 1257,10108 10683,10108l19483 0c12569,0 17597,-6023 19168,-10422l19482 -55043c314,-942 943,-1885 2200,-1885 1571,0 2199,943 2514,1885l19482 55043c1571,4399 6599,10422 19168,10422l19482 0c9427,0 12570,-6023 10684,-10108l-44935 -110085c-943,-2200 -628,-4714 628,-7542l43993 -106943c1571,-3771 628,-11364 -8799,-11364l-22624 0c-12570,0 -16340,6651 -18226,11678l-19482 53786c-628,1257 -943,2200 -1885,2200 -943,0 -1257,-943 -1886,-2200l-19168 -53786c-1885,-5027 -7227,-11678 -19796,-11678l-19483 0z"/>
   </g>
  </g>
 </g>
</svg>
